<svg id="Layer_1" data-name="Layer 1" xmlns="http://www.w3.org/2000/svg" viewBox="0 0 803 1025.97"><defs><style>.cls-1{fill:#fff;}</style></defs><title>Logo</title><polygon class="cls-1" points="401.5 1025.97 396.13 410.48 406.13 410.47 401.5 1025.97"/><path class="cls-1" d="M143.38,599q44.61-.9,89.24-1.58l44.63-.68,44.62-.58,44.63-.57,44.62-.47,89.25-.9L495.59,599l-.29-22.37,3.74,4.76A184.2,184.2,0,0,1,391.9,507.87,182.08,182.08,0,0,1,375.44,479a184.45,184.45,0,0,1-16-64.37,188.23,188.23,0,0,1,.86-33.31,180.6,180.6,0,0,1,19.43-63.57,186.81,186.81,0,0,1,40.81-52.55,182.68,182.68,0,0,1,26.78-20A185.65,185.65,0,0,1,542.76,218a187.31,187.31,0,0,1,65.6,11.55,184.36,184.36,0,0,1,57.18,34.12,186.83,186.83,0,0,1,41.48,52,184.7,184.7,0,0,1-9.89,190.32,184.21,184.21,0,0,1-106.27,74.84l3.7-4.75-.39,22.91-4.79-4.85,89.25.9,44.62.47,44.63.58,44.62.58,44.63.68q44.63.68,89.25,1.59-44.62.91-89.25,1.59l-44.63.68-44.62.58-44.63.58-44.62.47-89.25.9-4.81.05V599l0-22.91V572.3l3.69-1a173.5,173.5,0,0,0,99-71.82,172.65,172.65,0,0,0,7.85-177.35A172.18,172.18,0,0,0,482.3,243.38a170.92,170.92,0,0,0-52.63,32c-30.92,27.42-51.67,66.22-56.56,107.41a175.66,175.66,0,0,0-1.07,31,173.49,173.49,0,0,0,129.4,158l3.75,1v3.79l0,22.37v4.86l-4.78-.05-89.25-.9-44.62-.47-44.63-.57-44.62-.58-44.63-.68Q188,599.91,143.38,599Z" transform="translate(-143.38 -218.03)"/><polygon class="cls-1" points="500.13 479.47 439.1 411.61 446.9 405.34 500.13 479.47"/><polygon class="cls-1" points="302.88 479.47 356.1 405.34 363.9 411.61 302.88 479.47"/></svg>