<svg id="Layer_1" data-name="Layer 1" xmlns="http://www.w3.org/2000/svg" viewBox="0 0 803 1028.97"><defs><style>.cls-1{fill:#fff;}</style></defs><title>Logo2</title><polygon class="cls-1" points="401.5 1028.97 392.13 413.48 410.13 413.46 401.5 1028.97"/><path class="cls-1" d="M143.38,599q44.61-1.29,89.24-2.25l44.63-1,44.62-.82,44.63-.82,44.62-.71,89.25-1.25L493.54,599l-.39-22.37,5.36,6.83A186,186,0,0,1,356.64,414.77a191,191,0,0,1,.85-33.81,183.33,183.33,0,0,1,19.68-64.57A189.65,189.65,0,0,1,418.57,263a184.84,184.84,0,0,1,27.2-20.33,188.51,188.51,0,0,1,97-27.62,190.24,190.24,0,0,1,66.65,11.76,186.72,186.72,0,0,1,58.09,34.69,189.8,189.8,0,0,1,42.08,52.88,186.93,186.93,0,0,1-10.32,193.1,187.91,187.91,0,0,1-47.1,47.68A185.76,185.76,0,0,1,591.41,583l5.31-6.82-.49,22.91-6.85-6.93,89.25,1.25,44.62.71,44.63.83,44.62.82,44.63,1q44.63.94,89.25,2.26-44.62,1.31-89.25,2.26l-44.63,1-44.62.82-44.63.83-44.62.71-89.25,1.25-6.85.09v-7l0-22.91v-5.34l5.32-1.47a171.88,171.88,0,0,0,97.43-71.15A168.29,168.29,0,0,0,709,441.94a170.47,170.47,0,0,0,2.51-60.8A169.17,169.17,0,0,0,431.63,277.61c-30.42,26.93-50.87,65.05-55.71,105.55a172.18,172.18,0,0,0,3.23,60.78,171.27,171.27,0,0,0,67.24,99.67A172.2,172.2,0,0,0,502,569.75l5.39,1.43,0,5.41L507.21,599l0,7-6.8-.1-89.25-1.25-44.62-.71-44.63-.82-44.62-.82-44.63-1Q188,600.31,143.38,599Z" transform="translate(-143.38 -215.03)"/><polygon class="cls-1" points="500.13 482.47 435.99 417.11 450.01 405.83 500.13 482.47"/><polygon class="cls-1" points="302.88 482.47 352.99 405.83 367.01 417.11 302.88 482.47"/></svg>