<svg xmlns="http://www.w3.org/2000/svg" width="1000" height="812.56" viewBox="0 0 1000 812.56"><title>AstronautInstagram_Glyph_White</title><path d="M897.62,321.58c.61,8.81.61,17.63.61,26.52,0,271.1-206.38,583.75-583.75,583.75v-.16A580.83,580.83,0,0,1,0,839.71a417.2,417.2,0,0,0,48.83,3,412.05,412.05,0,0,0,254.81-88A205.44,205.44,0,0,1,112,612.21a204.63,204.63,0,0,0,92.63-3.53A205.19,205.19,0,0,1,40,407.58V405a204,204,0,0,0,93.11,25.68,205.42,205.42,0,0,1-63.5-273.94A582.33,582.33,0,0,0,492.46,371.06a205.31,205.31,0,0,1,59.36-196c82.63-77.68,212.59-73.7,290.27,8.9a411.59,411.59,0,0,0,130.28-49.81A205.91,205.91,0,0,1,882.19,247.6,408.47,408.47,0,0,0,1000,215.3,416.86,416.86,0,0,1,897.62,321.58Z" transform="translate(0 -119.29)" fill="#fff"/></svg>